{"title":"Maroon 5 Ft. Christina Aguilera - Moves Like Jagger [Music Video","uid":9270566,"size":104325963,"categoryP":"video","categoryS":"music_videos","magnet":"?xt=urn:btih:669089699b3da12e44235b6eb4ffcd3ab29d1b85&amp;dn=Maroon+5+Ft.+Christina+Aguilera+-+Moves+Like+Jagger+%5BMusic+Video&amp;tr=udp%3A%2F%2Ftracker.openbittorrent.com%3A80&amp;tr=udp%3A%2F%2Fopen.demonii.com%3A1337&amp;tr=udp%3A%2F%2Ftracker.coppersurfer.tk%3A6969&amp;tr=udp%3A%2F%2Fexodus.desync.com%3A6969","seeders":8,"leechers":0,"uploader":"Sbyky","files":1,"time":1385769444,"description":"\n\nGeneral\nComplete name                            : Maroon 5 Ft. Christina Aguilera - Moves Like Jagger [Music Video] 1080p [Sbyky].MP4\nFormat                                   : MPEG-4\nFormat profile                           : Base Media\nCodec ID                                 : isom\nFile size                                : 99.5 MiB\nDuration                                 : 4mn 38s\nOverall bit rate mode                    : Variable\nOverall bit rate                         : 2 994 Kbps\nEncoded date                             : UTC 2013-11-12 05:32:41\nTagged date                              : UTC 2013-11-12 05:32:41\n\nVideo\nID                                       : 1\nFormat                                   : AVC\nFormat/Info                              : Advanced Video Codec\nFormat profile                           : &lt;a class=&quot;__cf_email__&quot; href=&quot;/cdn-cgi/l/email-protection&quot; data-cfemail=&quot;f2ba9b959ab2bec6dcc2&quot;&gt;[email&amp;#160;protected]&lt;/a&gt;&lt;script cf-hash='f9e31' type=&quot;text/javascript&quot;&gt;\n/* &lt;![CDATA[ */!function(){try{var t=&quot;currentScript&quot;in document?document.currentScript:function(){for(var t=document.getElementsByTagName(&quot;script&quot;),e=t.length;e--;)if(t[e].getAttribute(&quot;cf-hash&quot;))return t[e]}();if(t&amp;&amp;t.previousSibling){var e,r,n,i,c=t.previousSibling,a=c.getAttribute(&quot;data-cfemail&quot;);if(a){for(e=&quot;&quot;,r=parseInt(a.substr(0,2),16),n=2;a.length-n;n+=2)i=parseInt(a.substr(n,2),16)^r,e+=String.fromCharCode(i);e=document.createTextNode(e),c.parentNode.replaceChild(e,c)}}}catch(u){}}();/* ]]&gt; */&lt;/script&gt;\nFormat settings, CABAC                   : Yes\nFormat settings, ReFrames                : 3 frames\nCodec ID                                 : avc1\nCodec ID/Info                            : Advanced Video Coding\nDuration                                 : 4mn 38s\nBit rate                                 : 2 738 Kbps\nWidth                                    : 1 920 pixels\nHeight                                   : 1 080 pixels\nDisplay aspect ratio                     : 16:9\nFrame rate mode                          : Variable\nFrame rate                               : 23.976 fps\nMinimum frame rate                       : 23.974 fps\nMaximum frame rate                       : 3 000.000 fps\nColor space                              : YUV\nChroma subsampling                       : 4:2:0\nBit depth                                : 8 bits\nScan type                                : Progressive\nBits/(Pixel*Frame)                       : 0.055\nStream size                              : 91.0 MiB (91%)\nEncoded date                             : UTC 2013-11-12 05:32:41\nTagged date                              : UTC 2013-11-12 05:32:41\n\nAudio\nID                                       : 2\nFormat                                   : AAC\nFormat/Info                              : Advanced Audio Codec\nFormat profile                           : LC\nCodec ID                                 : 40\nDuration                                 : 4mn 38s\nBit rate mode                            : Variable\nBit rate                                 : 254 Kbps\nChannel(s)                               : 2 channels\nChannel positions                        : Front: L R\nSampling rate                            : 44.1 KHz\nCompression mode                         : Lossy\nDelay relative to video                  : 42ms\nStream size                              : 8.43 MiB (8%)\nEncoded date                             : UTC 2013-11-12 05:30:58\nTagged date                              : UTC 2013-11-12 05:30:58\n\nShared By Sbyky\n","torrent":{"xt":"urn:btih:669089699b3da12e44235b6eb4ffcd3ab29d1b85","amp;dn":"Maroon+5+Ft.+Christina+Aguilera+-+Moves+Like+Jagger+%5BMusic+Video","amp;tr":["udp%3A%2F%2Ftracker.openbittorrent.com%3A80","udp%3A%2F%2Fopen.demonii.com%3A1337","udp%3A%2F%2Ftracker.coppersurfer.tk%3A6969","udp%3A%2F%2Fexodus.desync.com%3A6969"],"infoHash":"669089699b3da12e44235b6eb4ffcd3ab29d1b85","infoHashBuffer":{"type":"Buffer","data":[102,144,137,105,155,61,161,46,68,35,91,110,180,255,205,58,178,157,27,133]},"announce":[],"urlList":[]}}